<svg width="354.4" height="93.2" viewBox="0 0 354.4 93.2" xmlns="http://www.w3.org/2000/svg"><g id="svgGroup" stroke-linecap="round" fill-rule="evenodd" font-size="9pt" stroke="#4318FF" stroke-width="0.25mm" fill="#4318FF" style="stroke:#4318FF;stroke-width:0.25mm;fill:#4318FF"><path d="M 110.3 70 L 101.3 70 L 101.3 18 L 110 18 L 110 26.7 Q 112.8 22.5 117.1 19.65 A 17.205 17.205 0 0 1 126.302 16.809 A 20.858 20.858 0 0 1 126.9 16.8 A 20.994 20.994 0 0 1 131.317 17.24 Q 134.303 17.882 136.585 19.463 A 13.128 13.128 0 0 1 137.05 19.8 A 15.751 15.751 0 0 1 142.498 27.489 A 19.154 19.154 0 0 1 142.6 27.8 Q 145.7 23.2 149.95 20 A 15.669 15.669 0 0 1 156.741 17.116 A 21.446 21.446 0 0 1 160.5 16.8 A 21.437 21.437 0 0 1 165.388 17.322 Q 168.974 18.162 171.463 20.351 A 12.994 12.994 0 0 1 173.15 22.15 A 18.992 18.992 0 0 1 176.561 29.422 Q 177.3 32.472 177.3 36.1 L 177.3 70 L 168.3 70 L 168.3 36.8 A 19.042 19.042 0 0 0 167.963 33.111 Q 167.527 30.905 166.528 29.161 A 10.982 10.982 0 0 0 165.8 28.05 A 7.974 7.974 0 0 0 159.987 24.754 A 10.678 10.678 0 0 0 158.9 24.7 A 11.926 11.926 0 0 0 152.141 26.827 A 15.996 15.996 0 0 0 150.55 28.05 Q 146.7 31.4 143.8 35.9 L 143.8 70 L 134.8 70 L 134.8 36.8 A 19.042 19.042 0 0 0 134.463 33.111 Q 134.027 30.905 133.028 29.161 A 10.982 10.982 0 0 0 132.3 28.05 A 7.974 7.974 0 0 0 126.487 24.754 A 10.678 10.678 0 0 0 125.4 24.7 A 12.02 12.02 0 0 0 119.081 26.528 A 16.244 16.244 0 0 0 117.1 27.95 Q 113.2 31.2 110.3 35.6 L 110.3 70 Z M 255.9 88.8 L 259.2 81 A 20.562 20.562 0 0 0 263.017 83.373 A 24.737 24.737 0 0 0 264.8 84.15 Q 267.559 85.228 271.359 85.376 A 31.788 31.788 0 0 0 272.6 85.4 A 21.701 21.701 0 0 0 277.121 84.957 Q 280.022 84.339 282.222 82.859 A 12.576 12.576 0 0 0 283.75 81.65 A 11.352 11.352 0 0 0 286.657 77.157 Q 287.8 74.056 287.8 69.7 L 287.8 63.3 Q 285.8 65.7 282.05 67.85 Q 278.3 70 273.1 70 Q 267.2 70 261.9 66.95 A 22.236 22.236 0 0 1 254.608 60.112 A 27.437 27.437 0 0 1 253.3 58 A 25.181 25.181 0 0 1 250.587 50.376 A 35.033 35.033 0 0 1 250 43.8 A 32.06 32.06 0 0 1 250.917 35.992 A 26.682 26.682 0 0 1 253.25 29.9 A 25.706 25.706 0 0 1 259.314 22.278 A 24.448 24.448 0 0 1 262 20.3 Q 267.5 16.8 274.1 16.8 A 22.366 22.366 0 0 1 278.92 17.301 A 18.715 18.715 0 0 1 282.1 18.3 A 25.705 25.705 0 0 1 285.928 20.268 A 20.998 20.998 0 0 1 288.3 22 L 288.3 18 L 296.5 18 L 296.5 68.8 Q 296.5 77.4 293.5 82.8 Q 290.5 88.2 285.15 90.7 A 25.811 25.811 0 0 1 278.546 92.721 A 35.243 35.243 0 0 1 272.6 93.2 Q 268 93.2 263.65 92.1 A 27.232 27.232 0 0 1 258.35 90.183 A 23.518 23.518 0 0 1 255.9 88.8 Z M 64.8 67.5 L 56.1 71 L 48.3 51 L 15.9 51 L 8.1 70.8 L 0 67.5 L 27.4 0 L 37.8 0 L 64.8 67.5 Z M 354.1 47.7 L 317.7 47.7 A 24.088 24.088 0 0 0 318.839 52.725 Q 320.175 56.538 322.8 59.1 Q 327 63.2 333.9 63.2 Q 338.4 63.2 342 62.25 Q 345.6 61.3 348.9 59.8 L 351 67.5 A 40.77 40.77 0 0 1 346.665 69.126 A 51.863 51.863 0 0 1 342.9 70.15 A 38.914 38.914 0 0 1 337.808 70.969 A 52.025 52.025 0 0 1 332.8 71.2 A 28.318 28.318 0 0 1 325.054 70.195 A 21.108 21.108 0 0 1 315.05 64.05 A 23.521 23.521 0 0 1 309.845 54.51 Q 308.5 49.845 308.5 44 A 35.359 35.359 0 0 1 309.333 36.178 A 28.84 28.84 0 0 1 311.45 30.05 A 24.642 24.642 0 0 1 316.466 22.968 A 22.887 22.887 0 0 1 319.7 20.35 A 21.048 21.048 0 0 1 329.959 16.878 A 26.205 26.205 0 0 1 332 16.8 Q 339.5 16.8 344.45 20.05 Q 349.4 23.3 351.9 28.8 A 28.185 28.185 0 0 1 354.326 38.664 A 33.434 33.434 0 0 1 354.4 40.9 A 75.204 75.204 0 0 1 354.109 47.597 A 69.426 69.426 0 0 1 354.1 47.7 Z M 228.4 22.2 L 228.4 18 L 236.6 18 L 236.6 57.4 A 12.15 12.15 0 0 0 236.702 59.036 Q 237.034 61.47 238.45 62.35 Q 240.3 63.5 242.5 63.5 L 240.6 70.5 A 17.722 17.722 0 0 1 236.335 70.028 Q 230.698 68.628 229.103 63.08 A 13.59 13.59 0 0 1 229 62.7 A 21.307 21.307 0 0 1 225.89 66.126 A 28.498 28.498 0 0 1 222.75 68.55 Q 218.8 71.2 212.7 71.2 Q 206.2 71.2 200.9 67.9 A 22.947 22.947 0 0 1 193.487 60.373 A 27.923 27.923 0 0 1 192.45 58.55 A 27.228 27.228 0 0 1 189.82 50.608 A 36.644 36.644 0 0 1 189.3 44.3 A 33.142 33.142 0 0 1 190.297 36.031 A 27.968 27.968 0 0 1 192.45 30.3 Q 195.6 24.1 201.15 20.45 A 22.297 22.297 0 0 1 212.345 16.844 A 27.388 27.388 0 0 1 213.9 16.8 A 22.584 22.584 0 0 1 218.694 17.29 A 18.703 18.703 0 0 1 222.05 18.35 A 26.002 26.002 0 0 1 226.337 20.644 A 22.103 22.103 0 0 1 228.4 22.2 Z M 84.3 70 L 74.8 70 L 74.8 0 L 84.3 0 L 84.3 70 Z M 227.6 56.7 L 227.6 28.8 Q 224.9 26.9 221.65 25.75 Q 218.4 24.6 214.8 24.6 A 15.924 15.924 0 0 0 209.829 25.354 A 14.024 14.024 0 0 0 206.35 27.05 A 16.301 16.301 0 0 0 201.331 32.474 A 19.962 19.962 0 0 0 200.6 33.85 A 20.663 20.663 0 0 0 198.847 39.527 A 27.678 27.678 0 0 0 198.5 44 Q 198.5 49.6 200.6 53.95 A 17.602 17.602 0 0 0 203.706 58.496 A 15.697 15.697 0 0 0 206.4 60.75 Q 210.1 63.2 214.7 63.2 Q 218.5 63.2 221.9 61.35 Q 225.3 59.5 227.6 56.7 Z M 287.5 56 L 287.5 28.8 Q 285.334 27.225 282.297 25.941 A 36.018 36.018 0 0 0 282.2 25.9 A 16.249 16.249 0 0 0 278.396 24.849 A 22.135 22.135 0 0 0 275 24.6 Q 270.9 24.6 267.3 26.8 Q 263.7 29 261.45 33.15 Q 259.2 37.3 259.2 43.3 A 24.32 24.32 0 0 0 259.678 48.236 A 18.311 18.311 0 0 0 261.45 53.2 A 18.576 18.576 0 0 0 264.361 57.275 A 15.802 15.802 0 0 0 267.3 59.7 Q 270.9 62 275.1 62 A 15.276 15.276 0 0 0 279.678 61.332 A 13.606 13.606 0 0 0 282.3 60.2 A 20.855 20.855 0 0 0 285.281 58.184 A 16.309 16.309 0 0 0 287.5 56 Z M 32.1 9.4 L 18.9 43 L 45.2 43 L 32.1 9.4 Z M 317.6 40.4 L 346.1 40.4 A 24.355 24.355 0 0 0 345.696 35.815 Q 345.2 33.231 344.096 31.207 A 12.422 12.422 0 0 0 342.3 28.7 A 12.488 12.488 0 0 0 335.339 24.924 A 18.395 18.395 0 0 0 331.8 24.6 A 13.58 13.58 0 0 0 326.688 25.535 A 12.524 12.524 0 0 0 322.2 28.65 Q 318.4 32.7 317.6 40.4 Z" vector-effect="non-scaling-stroke"/></g></svg>